<?xml version="1.0" encoding="utf-8"?>
<svg viewBox="0 0 500 500" xmlns="http://www.w3.org/2000/svg">
  <g transform="matrix(1.992031, 0, 0, 1.992031, -2035.257965, -394.270697)">
    <g>
      <g>
        <path fill="#DEFEFF" d="M1108.6,281.8c-6.9-3.8-14.8-6-23.2-6c-26.4,0-47.9,21.4-47.9,47.9c0,26.4,21.4,47.9,47.9,47.9 c8.4,0,16.4-2.2,23.2-6c12.9-9.4,21.3-24.7,21.3-41.9S1121.5,291.2,1108.6,281.8z"/>
      </g>
    </g>
    <g>
      <g>
        <path fill="#333333" d="M1078.1,380c-31.1,0-56.4-25.3-56.4-56.4s25.3-56.4,56.4-56.4c31.1,0,56.4,25.3,56.4,56.4 S1109.2,380,1078.1,380z M1078.1,276.5c-26,0-47.1,21.2-47.1,47.1c0,26,21.2,47.1,47.1,47.1s47.1-21.2,47.1-47.1 C1125.3,297.6,1104.1,276.5,1078.1,276.5z"/>
      </g>
    </g>
    <g>
      <g>
        <path fill="#DEFEFF" d="M1246.8,281.8c-6.9-3.8-14.8-6-23.2-6c-26.4,0-47.9,21.4-47.9,47.9c0,26.4,21.4,47.9,47.9,47.9 c8.4,0,16.4-2.2,23.2-6c12.9-9.4,21.3-24.7,21.3-41.9S1259.7,291.2,1246.8,281.8z"/>
      </g>
    </g>
    <g>
      <g>
        <path fill="#333333" d="M1216.3,380c-31.1,0-56.4-25.3-56.4-56.4s25.3-56.4,56.4-56.4c31.1,0,56.4,25.3,56.4,56.4 S1247.5,380,1216.3,380z M1216.3,276.5c-26,0-47.1,21.2-47.1,47.1c0,26,21.2,47.1,47.1,47.1c26,0,47.1-21.2,47.1-47.1 C1263.5,297.6,1242.3,276.5,1216.3,276.5z"/>
      </g>
    </g>
    <g>
      <g>
        <path fill="#FBB03B" d="M1170.1,300.5h-43.5c3,7.1,4.7,14.9,4.7,23.1s-1.7,16-4.7,23.1h43.5c-3-7.1-4.7-14.9-4.7-23.1 S1167,307.6,1170.1,300.5z"/>
      </g>
    </g>
    <g>
      <g>
        <path fill="#333333" d="M1177.1,351.4h-57.6l2.8-6.5c2.9-6.8,4.4-13.9,4.4-21.3c0-7.4-1.5-14.6-4.4-21.3l-2.8-6.5h57.6l-2.8,6.5 c-2.9,6.8-4.4,13.9-4.4,21.3c0,7.4,1.5,14.6,4.4,21.3L1177.1,351.4z M1133.2,342.1h30.2c-1.8-6-2.7-12.2-2.7-18.5 s0.9-12.5,2.7-18.5h-30.2c1.8,6,2.7,12.2,2.7,18.5S1135,336.1,1133.2,342.1z"/>
      </g>
    </g>
    <g>
      <g>
        <path fill="#333333" d="M1069.6,303.9h7.8v27.9h13.7v6.5h-21.5V303.9z"/>
      </g>
    </g>
    <g>
      <g>
        <path fill="#333333" d="M1206.4,304.3c2.5-0.4,6.2-0.7,10.4-0.7c5.1,0,8.7,0.8,11.2,2.7c2,1.6,3.2,4,3.2,7.2 c0,4.4-3.1,7.4-6.1,8.5v0.2c2.4,1,3.7,3.3,4.6,6.4c1.1,3.9,2.1,8.4,2.8,9.7h-8c-0.6-1-1.4-3.8-2.4-8c-0.9-4.3-2.4-5.5-5.6-5.5 h-2.4v13.6h-7.7V304.3z M1214.1,319.2h3.1c3.9,0,6.2-1.9,6.2-5c0-3.2-2.1-4.8-5.7-4.8c-1.9,0-3,0.2-3.5,0.3V319.2z"/>
      </g>
    </g>
  </g>
</svg>