<?xml version="1.0" encoding="utf-8"?>
<svg viewBox="0 0 500 500" xmlns="http://www.w3.org/2000/svg">
  <g transform="matrix(2.174859, 0, 0, 2.174859, -275.181889, -401.261542)" style="">
    <g>
      <g>
        <path fill="#DEFEFF" d="M169.2,213.8v192.1c0,2.2,1.8,3.9,3.9,3.9H319c2.2,0,3.9-1.8,3.9-3.9V213.8H169.2z"/>
      </g>
    </g>
    <g>
      <g>
        <rect x="169.2" y="213.8" fill="#B8F4F4" width="153.7" height="11.9"/>
      </g>
    </g>
    <g>
      <g>
        <path fill="#333333" d="M253.4,259h-14.8v9.5h16.5v7.4h-25.6v-40.1h24.8v7.4h-15.7v8.3h14.8V259z"/>
      </g>
    </g>
    <g>
      <g>
        <path fill="#333333" d="M198,297h18v5.5h-11.3v6.7h10.6v5.4h-10.6v11.9H198V297z"/>
      </g>
      <g>
        <path fill="#333333" d="M265.3,297.4c2.1-0.4,4.9-0.6,9-0.6c4.1,0,7,0.8,9,2.4c1.9,1.5,3.2,3.9,3.2,6.8s-1,5.3-2.7,7 c-2.3,2.1-5.6,3.1-9.6,3.1c-0.9,0-1.7,0-2.3-0.1v10.6h-6.6V297.4z M271.9,310.8c0.6,0.1,1.3,0.2,2.2,0.2c3.5,0,5.7-1.8,5.7-4.8 c0-2.7-1.9-4.3-5.2-4.3c-1.4,0-2.3,0.1-2.8,0.3V310.8z"/>
      </g>
    </g>
    <g>
      <g>
        <path fill="#333333" d="M200,345.4h-4.3v-3.1h12.4v3.1h-4.4v13H200V345.4z"/>
      </g>
      <g>
        <path fill="#333333" d="M248.9,350.2c0,5.3-3.2,8.5-7.9,8.5c-4.8,0-7.6-3.6-7.6-8.2c0-4.8,3.1-8.4,7.8-8.4 C246.2,342.1,248.9,345.8,248.9,350.2z M237.3,350.4c0,3.2,1.5,5.4,3.9,5.4c2.5,0,3.9-2.3,3.9-5.5c0-2.9-1.4-5.4-3.9-5.4 C238.7,345,237.3,347.3,237.3,350.4z"/>
      </g>
      <g>
        <path fill="#333333" d="M274.4,356.5l7.7-11v-0.1h-7v-3h11.7v2.1l-7.5,10.9v0.1h7.6v3h-12.5V356.5z"/>
      </g>
    </g>
    <g>
      <g>
        <path fill="#333333" d="M185.2,377.2h1.7v6.2h3v1.4h-4.8V377.2z"/>
      </g>
      <g>
        <path fill="#333333" d="M220.6,377.3c0.5-0.1,1.3-0.2,2.3-0.2c1.1,0,1.8,0.2,2.3,0.6c0.5,0.4,0.8,1,0.8,1.8 c0,0.7-0.2,1.4-0.7,1.8c-0.6,0.6-1.5,0.8-2.5,0.8c-0.2,0-0.4,0-0.6,0v2.7h-1.7V377.3z M222.3,380.8c0.1,0,0.3,0,0.6,0 c0.9,0,1.5-0.5,1.5-1.2c0-0.7-0.5-1.1-1.3-1.1c-0.4,0-0.6,0-0.7,0.1V380.8z"/>
      </g>
      <g>
        <path fill="#333333" d="M261.4,381.6h-2.8v1.8h3.1v1.4h-4.9v-7.6h4.7v1.4h-3v1.6h2.8V381.6z"/>
      </g>
      <g>
        <path fill="#333333" d="M298.2,384.6c-0.3,0.2-1,0.3-2,0.3c-2.6,0-4-1.6-4-3.8c0-2.6,1.9-4,4.2-4c0.9,0,1.6,0.2,1.9,0.3l-0.4,1.4 c-0.4-0.1-0.8-0.3-1.4-0.3c-1.4,0-2.4,0.8-2.4,2.5c0,1.5,0.9,2.5,2.4,2.5c0.5,0,1.1-0.1,1.4-0.2L298.2,384.6z"/>
      </g>
    </g>
    <g>
      <g>
        <path fill="#FBB03B" d="M332.1,208.5v-14.2c0-2.9-2.4-5.3-5.3-5.3H168.8c-2.9,0-5.3,2.4-5.3,5.3v14.2c0,2.9,2.4,5.3,5.3,5.3 h157.9C329.7,213.8,332.1,211.4,332.1,208.5z"/>
      </g>
    </g>
    <g>
      <g>
        <path fill="#333333" d="M326.8,218.5H156.2c-5.5,0-9.9-4.5-9.9-9.9v-14.2c0-5.5,4.5-9.9,9.9-9.9h170.5c5.5,0,9.9,4.5,9.9,9.9 v14.2C336.7,214,332.2,218.5,326.8,218.5z M156.2,193.7c-0.4,0-0.7,0.3-0.7,0.7v14.2c0,0.4,0.3,0.7,0.7,0.7h170.5 c0.4,0,0.7-0.3,0.7-0.7v-14.2c0-0.4-0.3-0.7-0.7-0.7H156.2z"/>
      </g>
    </g>
    <g>
      <g>
        <path fill="#333333" d="M319,414.4H164c-4.7,0-8.6-3.8-8.6-8.6V209.2h172.1v196.7C327.5,410.6,323.7,414.4,319,414.4z M164.7,405.1h153.5V218.5H164.7V405.1z"/>
      </g>
    </g>
  </g>
</svg>