<?xml version="1.0" encoding="utf-8"?>
<svg viewBox="0 0 500 500" xmlns="http://www.w3.org/2000/svg">
  <g transform="matrix(2.446184, 0, 0, 2.446184, -1777.641872, -553.40516)">
    <g>
      <g>
        <path fill="#DEFEFF" d="M835.7,276c-50.7,0.6-90.7,7.5-90.7,16c0,8.5,40,15.4,90.7,16c50.7-0.6,90.7-7.5,90.7-16 C926.4,283.5,886.4,276.5,835.7,276z"/>
      </g>
    </g>
    <g>
      <g>
        <path fill="#FBB03B" d="M835.1,381.4c45.6-2.8,82.7-37.1,90-81.3c-17,4.7-48.2,7.9-83.9,7.9c-2.1,0-4.1,0-6.2,0c-2,0-4.1,0-6.2,0 c-35.7,0-66.9-3.2-83.9-7.9C752.3,344.4,789.4,378.6,835.1,381.4z"/>
      </g>
    </g>
    <g>
      <g>
        <path fill="#ED9C32" d="M841.2,308c-2.1,0-4.1,0-6.2,0c-2,0-4.1,0-6.2,0c-35.7,0-66.9-3.2-83.9-7.9c0.6,3.5,1.3,6.9,2.3,10.2 c3.6,0.8,7.3,1.5,11.1,2.1c18.9,3.1,43.9,4.8,70.5,4.8c26.5,0,51.6-1.7,70.5-4.8c9.1-1.5,17.9-3.4,24.5-6.3c0.5-2,0.9-4,1.2-6 C908.1,304.8,876.9,308,841.2,308z"/>
      </g>
    </g>
    <g>
      <g>
        <path fill="#333333" d="M828.9,312.6c-26.3,0-51-1.7-69.7-4.8c-28.8-4.7-32.5-11-32.5-15.9s3.7-11.2,32.5-15.9 c18.7-3.1,43.4-4.8,69.7-4.8s51,1.7,69.7,4.8c28.8,4.7,32.5,11,32.5,15.9s-3.7,11.2-32.5,15.9C880,310.9,855.2,312.6,828.9,312.6 z M736.8,291.9c2.2,1.4,8.8,4.6,27.6,7.3c17.7,2.6,40.6,4.1,64.5,4.1s46.8-1.4,64.5-4.1c18.8-2.8,25.4-5.9,27.6-7.3 c-2.2-1.4-8.8-4.6-27.6-7.3c-17.7-2.6-40.6-4.1-64.5-4.1s-46.8,1.4-64.5,4.1C745.7,287.4,739,290.5,736.8,291.9z"/>
      </g>
    </g>
    <g>
      <g>
        <path fill="#333333" d="M828.9,386.3c-25.6,0-50.1-9.5-68.9-26.7c-18.7-17.1-30.4-40.4-32.8-65.6c-0.2-2.2,1.1-4.2,3.2-4.9 c2.1-0.7,4.3,0.2,5.4,2.1c0,0,3.3,4.4,28.6,8.1c17.7,2.6,40.6,4.1,64.5,4.1s46.8-1.4,64.5-4.1c25.3-3.7,28.5-8.1,28.6-8.1 c1.1-1.9,3.3-2.8,5.4-2.1c2.1,0.7,3.4,2.7,3.2,4.9c-2.4,25.2-14,48.5-32.8,65.6C879,376.8,854.5,386.3,828.9,386.3z M737.9,302.7 c3.9,19.1,13.7,36.6,28.4,50c17.1,15.7,39.4,24.3,62.6,24.3c23.3,0,45.5-8.6,62.6-24.3c14.6-13.4,24.5-30.8,28.4-50 c-5.8,2.2-13.9,4-24.5,5.7c-18.2,2.7-41.8,4.2-66.5,4.2s-48.2-1.5-66.5-4.2C751.8,306.8,743.7,304.9,737.9,302.7z"/>
      </g>
    </g>
  </g>
</svg>