<?xml version="1.0" encoding="utf-8"?>
<svg viewBox="0 0 500 500" xmlns="http://www.w3.org/2000/svg">
  <g transform="matrix(2.215821, 0, 0, 2.215821, -923.498854, -451.647315)" style="">
    <g>
      <g>
        <path fill="#DEFEFF" d="M533.7,270.3c-23.7,2.1-42.4,22-42.4,46.3s18.6,44.2,42.4,46.3c23.7-2.1,42.4-22,42.4-46.3 S557.5,272.4,533.7,270.3z"/>
      </g>
    </g>
    <g>
      <g>
        <path fill="#333333" d="M529.6,383.8c-11.1,0-22-1.7-32.6-4.9c-38.3-11.9-63.4-35.3-74.9-48.2c-7.1-8-7.1-20.1,0-28.1 c11.5-12.9,36.6-36.4,74.9-48.2c10.5-3.3,21.5-4.9,32.6-4.9c11.1,0,22,1.7,32.6,4.9c38.3,11.9,63.4,35.3,74.9,48.2 c7.1,8,7.1,20.1,0,28.1c-11.5,12.9-36.6,36.4-74.9,48.2C551.6,382.1,540.6,383.8,529.6,383.8z M529.6,258.7 c-10.1,0-20.2,1.5-29.8,4.5c-36.2,11.2-59.8,33.3-70.7,45.5c-4,4.5-4,11.2,0,15.7c10.9,12.2,34.6,34.3,70.7,45.5 c9.6,3,19.7,4.5,29.8,4.5c10.1,0,20.2-1.5,29.8-4.5c36.2-11.2,59.8-33.3,70.7-45.5c4-4.5,4-11.2,0-15.7 c-10.9-12.2-34.6-34.3-70.7-45.5C549.7,260.3,539.7,258.7,529.6,258.7z"/>
      </g>
    </g>
    <g>
      <g>
        <path fill="#333333" d="M529.6,367.8c-28.2,0-51.2-23-51.2-51.2c0-28.2,23-51.2,51.2-51.2c28.2,0,51.2,23,51.2,51.2 C580.7,344.8,557.8,367.8,529.6,367.8z M529.6,274.8c-23.1,0-41.9,18.8-41.9,41.9s18.8,41.9,41.9,41.9 c23.1,0,41.9-18.8,41.9-41.9S552.7,274.8,529.6,274.8z"/>
      </g>
    </g>
    <g>
      <g>
        <circle fill="#333333" cx="529.6" cy="316.6" r="32.7"/>
      </g>
    </g>
    <g>
      <g>
        <circle fill="#DEFEFF" cx="544.1" cy="298.4" r="18.2"/>
      </g>
    </g>
  </g>
</svg>