<?xml version="1.0" encoding="utf-8"?>
<!-- Generator: Adobe Illustrator 18.0.0, SVG Export Plug-In . SVG Version: 6.00 Build 0)  -->
<!DOCTYPE svg PUBLIC "-//W3C//DTD SVG 1.1//EN" "http://www.w3.org/Graphics/SVG/1.1/DTD/svg11.dtd">
<svg version="1.1" id="Layer_1" xmlns="http://www.w3.org/2000/svg" xmlns:xlink="http://www.w3.org/1999/xlink" x="0px" y="0px"
	 width="1400px" height="980px" viewBox="0 0 1400 980" enable-background="new 0 0 1400 980" xml:space="preserve">
<g>
	<g>
		<g>
			<path fill="#DEFEFF" d="M169.2,213.8v192.1c0,2.2,1.8,3.9,3.9,3.9H319c2.2,0,3.9-1.8,3.9-3.9V213.8H169.2z"/>
		</g>
	</g>
	<g>
		<g>
			<rect x="169.2" y="213.8" fill="#B8F4F4" width="153.7" height="11.9"/>
		</g>
	</g>
	<g>
		<g>
			<path fill="#333333" d="M253.4,259h-14.8v9.5h16.5v7.4h-25.6v-40.1h24.8v7.4h-15.7v8.3h14.8V259z"/>
		</g>
	</g>
	<g>
		<g>
			<path fill="#333333" d="M198,297h18v5.5h-11.3v6.7h10.6v5.4h-10.6v11.9H198V297z"/>
		</g>
		<g>
			<path fill="#333333" d="M265.3,297.4c2.1-0.4,4.9-0.6,9-0.6c4.1,0,7,0.8,9,2.4c1.9,1.5,3.2,3.9,3.2,6.8s-1,5.3-2.7,7
				c-2.3,2.1-5.6,3.1-9.6,3.1c-0.9,0-1.7,0-2.3-0.1v10.6h-6.6V297.4z M271.9,310.8c0.6,0.1,1.3,0.2,2.2,0.2c3.5,0,5.7-1.8,5.7-4.8
				c0-2.7-1.9-4.3-5.2-4.3c-1.4,0-2.3,0.1-2.8,0.3V310.8z"/>
		</g>
	</g>
	<g>
		<g>
			<path fill="#333333" d="M200,345.4h-4.3v-3.1h12.4v3.1h-4.4v13H200V345.4z"/>
		</g>
		<g>
			<path fill="#333333" d="M248.9,350.2c0,5.3-3.2,8.5-7.9,8.5c-4.8,0-7.6-3.6-7.6-8.2c0-4.8,3.1-8.4,7.8-8.4
				C246.2,342.1,248.9,345.8,248.9,350.2z M237.3,350.4c0,3.2,1.5,5.4,3.9,5.4c2.5,0,3.9-2.3,3.9-5.5c0-2.9-1.4-5.4-3.9-5.4
				C238.7,345,237.3,347.3,237.3,350.4z"/>
		</g>
		<g>
			<path fill="#333333" d="M274.4,356.5l7.7-11v-0.1h-7v-3h11.7v2.1l-7.5,10.9v0.1h7.6v3h-12.5V356.5z"/>
		</g>
	</g>
	<g>
		<g>
			<path fill="#333333" d="M185.2,377.2h1.7v6.2h3v1.4h-4.8V377.2z"/>
		</g>
		<g>
			<path fill="#333333" d="M220.6,377.3c0.5-0.1,1.3-0.2,2.3-0.2c1.1,0,1.8,0.2,2.3,0.6c0.5,0.4,0.8,1,0.8,1.8
				c0,0.7-0.2,1.4-0.7,1.8c-0.6,0.6-1.5,0.8-2.5,0.8c-0.2,0-0.4,0-0.6,0v2.7h-1.7V377.3z M222.3,380.8c0.1,0,0.3,0,0.6,0
				c0.9,0,1.5-0.5,1.5-1.2c0-0.7-0.5-1.1-1.3-1.1c-0.4,0-0.6,0-0.7,0.1V380.8z"/>
		</g>
		<g>
			<path fill="#333333" d="M261.4,381.6h-2.8v1.8h3.1v1.4h-4.9v-7.6h4.7v1.4h-3v1.6h2.8V381.6z"/>
		</g>
		<g>
			<path fill="#333333" d="M298.2,384.6c-0.3,0.2-1,0.3-2,0.3c-2.6,0-4-1.6-4-3.8c0-2.6,1.9-4,4.2-4c0.9,0,1.6,0.2,1.9,0.3l-0.4,1.4
				c-0.4-0.1-0.8-0.3-1.4-0.3c-1.4,0-2.4,0.8-2.4,2.5c0,1.5,0.9,2.5,2.4,2.5c0.5,0,1.1-0.1,1.4-0.2L298.2,384.6z"/>
		</g>
	</g>
	<g>
		<g>
			<path fill="#FBB03B" d="M332.1,208.5v-14.2c0-2.9-2.4-5.3-5.3-5.3H168.8c-2.9,0-5.3,2.4-5.3,5.3v14.2c0,2.9,2.4,5.3,5.3,5.3
				h157.9C329.7,213.8,332.1,211.4,332.1,208.5z"/>
		</g>
	</g>
	<g>
		<g>
			<path fill="#333333" d="M326.8,218.5H156.2c-5.5,0-9.9-4.5-9.9-9.9v-14.2c0-5.5,4.5-9.9,9.9-9.9h170.5c5.5,0,9.9,4.5,9.9,9.9
				v14.2C336.7,214,332.2,218.5,326.8,218.5z M156.2,193.7c-0.4,0-0.7,0.3-0.7,0.7v14.2c0,0.4,0.3,0.7,0.7,0.7h170.5
				c0.4,0,0.7-0.3,0.7-0.7v-14.2c0-0.4-0.3-0.7-0.7-0.7H156.2z"/>
		</g>
	</g>
	<g>
		<g>
			<path fill="#333333" d="M319,414.4H164c-4.7,0-8.6-3.8-8.6-8.6V209.2h172.1v196.7C327.5,410.6,323.7,414.4,319,414.4z
				 M164.7,405.1h153.5V218.5H164.7V405.1z"/>
		</g>
	</g>
</g>
<g>
	<g>
		<g>
			<path fill="#DEFEFF" d="M533.7,270.3c-23.7,2.1-42.4,22-42.4,46.3s18.6,44.2,42.4,46.3c23.7-2.1,42.4-22,42.4-46.3
				S557.5,272.4,533.7,270.3z"/>
		</g>
	</g>
	<g>
		<g>
			<path fill="#333333" d="M529.6,383.8c-11.1,0-22-1.7-32.6-4.9c-38.3-11.9-63.4-35.3-74.9-48.2c-7.1-8-7.1-20.1,0-28.1
				c11.5-12.9,36.6-36.4,74.9-48.2c10.5-3.3,21.5-4.9,32.6-4.9c11.1,0,22,1.7,32.6,4.9c38.3,11.9,63.4,35.3,74.9,48.2
				c7.1,8,7.1,20.1,0,28.1c-11.5,12.9-36.6,36.4-74.9,48.2C551.6,382.1,540.6,383.8,529.6,383.8z M529.6,258.7
				c-10.1,0-20.2,1.5-29.8,4.5c-36.2,11.2-59.8,33.3-70.7,45.5c-4,4.5-4,11.2,0,15.7c10.9,12.2,34.6,34.3,70.7,45.5
				c9.6,3,19.7,4.5,29.8,4.5c10.1,0,20.2-1.5,29.8-4.5c36.2-11.2,59.8-33.3,70.7-45.5c4-4.5,4-11.2,0-15.7
				c-10.9-12.2-34.6-34.3-70.7-45.5C549.7,260.3,539.7,258.7,529.6,258.7z"/>
		</g>
	</g>
	<g>
		<g>
			<path fill="#333333" d="M529.6,367.8c-28.2,0-51.2-23-51.2-51.2c0-28.2,23-51.2,51.2-51.2c28.2,0,51.2,23,51.2,51.2
				C580.7,344.8,557.8,367.8,529.6,367.8z M529.6,274.8c-23.1,0-41.9,18.8-41.9,41.9s18.8,41.9,41.9,41.9
				c23.1,0,41.9-18.8,41.9-41.9S552.7,274.8,529.6,274.8z"/>
		</g>
	</g>
	<g>
		<g>
			<circle fill="#333333" cx="529.6" cy="316.6" r="32.7"/>
		</g>
	</g>
	<g>
		<g>
			<circle fill="#DEFEFF" cx="544.1" cy="298.4" r="18.2"/>
		</g>
	</g>
</g>
<g>
	<g>
		<g>
			<path fill="#DEFEFF" d="M1108.6,281.8c-6.9-3.8-14.8-6-23.2-6c-26.4,0-47.9,21.4-47.9,47.9c0,26.4,21.4,47.9,47.9,47.9
				c8.4,0,16.4-2.2,23.2-6c12.9-9.4,21.3-24.7,21.3-41.9S1121.5,291.2,1108.6,281.8z"/>
		</g>
	</g>
	<g>
		<g>
			<path fill="#333333" d="M1078.1,380c-31.1,0-56.4-25.3-56.4-56.4s25.3-56.4,56.4-56.4c31.1,0,56.4,25.3,56.4,56.4
				S1109.2,380,1078.1,380z M1078.1,276.5c-26,0-47.1,21.2-47.1,47.1c0,26,21.2,47.1,47.1,47.1s47.1-21.2,47.1-47.1
				C1125.3,297.6,1104.1,276.5,1078.1,276.5z"/>
		</g>
	</g>
	<g>
		<g>
			<path fill="#DEFEFF" d="M1246.8,281.8c-6.9-3.8-14.8-6-23.2-6c-26.4,0-47.9,21.4-47.9,47.9c0,26.4,21.4,47.9,47.9,47.9
				c8.4,0,16.4-2.2,23.2-6c12.9-9.4,21.3-24.7,21.3-41.9S1259.7,291.2,1246.8,281.8z"/>
		</g>
	</g>
	<g>
		<g>
			<path fill="#333333" d="M1216.3,380c-31.1,0-56.4-25.3-56.4-56.4s25.3-56.4,56.4-56.4c31.1,0,56.4,25.3,56.4,56.4
				S1247.5,380,1216.3,380z M1216.3,276.5c-26,0-47.1,21.2-47.1,47.1c0,26,21.2,47.1,47.1,47.1c26,0,47.1-21.2,47.1-47.1
				C1263.5,297.6,1242.3,276.5,1216.3,276.5z"/>
		</g>
	</g>
	<g>
		<g>
			<path fill="#FBB03B" d="M1170.1,300.5h-43.5c3,7.1,4.7,14.9,4.7,23.1s-1.7,16-4.7,23.1h43.5c-3-7.1-4.7-14.9-4.7-23.1
				S1167,307.6,1170.1,300.5z"/>
		</g>
	</g>
	<g>
		<g>
			<path fill="#333333" d="M1177.1,351.4h-57.6l2.8-6.5c2.9-6.8,4.4-13.9,4.4-21.3c0-7.4-1.5-14.6-4.4-21.3l-2.8-6.5h57.6l-2.8,6.5
				c-2.9,6.8-4.4,13.9-4.4,21.3c0,7.4,1.5,14.6,4.4,21.3L1177.1,351.4z M1133.2,342.1h30.2c-1.8-6-2.7-12.2-2.7-18.5
				s0.9-12.5,2.7-18.5h-30.2c1.8,6,2.7,12.2,2.7,18.5S1135,336.1,1133.2,342.1z"/>
		</g>
	</g>
	<g>
		<g>
			<path fill="#333333" d="M1069.6,303.9h7.8v27.9h13.7v6.5h-21.5V303.9z"/>
		</g>
	</g>
	<g>
		<g>
			<path fill="#333333" d="M1206.4,304.3c2.5-0.4,6.2-0.7,10.4-0.7c5.1,0,8.7,0.8,11.2,2.7c2,1.6,3.2,4,3.2,7.2
				c0,4.4-3.1,7.4-6.1,8.5v0.2c2.4,1,3.7,3.3,4.6,6.4c1.1,3.9,2.1,8.4,2.8,9.7h-8c-0.6-1-1.4-3.8-2.4-8c-0.9-4.3-2.4-5.5-5.6-5.5
				h-2.4v13.6h-7.7V304.3z M1214.1,319.2h3.1c3.9,0,6.2-1.9,6.2-5c0-3.2-2.1-4.8-5.7-4.8c-1.9,0-3,0.2-3.5,0.3V319.2z"/>
		</g>
	</g>
</g>
<g>
	<g>
		<g>
			<path fill="#DEFEFF" d="M835.7,276c-50.7,0.6-90.7,7.5-90.7,16c0,8.5,40,15.4,90.7,16c50.7-0.6,90.7-7.5,90.7-16
				C926.4,283.5,886.4,276.5,835.7,276z"/>
		</g>
	</g>
	<g>
		<g>
			<path fill="#FBB03B" d="M835.1,381.4c45.6-2.8,82.7-37.1,90-81.3c-17,4.7-48.2,7.9-83.9,7.9c-2.1,0-4.1,0-6.2,0c-2,0-4.1,0-6.2,0
				c-35.7,0-66.9-3.2-83.9-7.9C752.3,344.4,789.4,378.6,835.1,381.4z"/>
		</g>
	</g>
	<g>
		<g>
			<path fill="#ED9C32" d="M841.2,308c-2.1,0-4.1,0-6.2,0c-2,0-4.1,0-6.2,0c-35.7,0-66.9-3.2-83.9-7.9c0.6,3.5,1.3,6.9,2.3,10.2
				c3.6,0.8,7.3,1.5,11.1,2.1c18.9,3.1,43.9,4.8,70.5,4.8c26.5,0,51.6-1.7,70.5-4.8c9.1-1.5,17.9-3.4,24.5-6.3c0.5-2,0.9-4,1.2-6
				C908.1,304.8,876.9,308,841.2,308z"/>
		</g>
	</g>
	<g>
		<g>
			<path fill="#333333" d="M828.9,312.6c-26.3,0-51-1.7-69.7-4.8c-28.8-4.7-32.5-11-32.5-15.9s3.7-11.2,32.5-15.9
				c18.7-3.1,43.4-4.8,69.7-4.8s51,1.7,69.7,4.8c28.8,4.7,32.5,11,32.5,15.9s-3.7,11.2-32.5,15.9C880,310.9,855.2,312.6,828.9,312.6
				z M736.8,291.9c2.2,1.4,8.8,4.6,27.6,7.3c17.7,2.6,40.6,4.1,64.5,4.1s46.8-1.4,64.5-4.1c18.8-2.8,25.4-5.9,27.6-7.3
				c-2.2-1.4-8.8-4.6-27.6-7.3c-17.7-2.6-40.6-4.1-64.5-4.1s-46.8,1.4-64.5,4.1C745.7,287.4,739,290.5,736.8,291.9z"/>
		</g>
	</g>
	<g>
		<g>
			<path fill="#333333" d="M828.9,386.3c-25.6,0-50.1-9.5-68.9-26.7c-18.7-17.1-30.4-40.4-32.8-65.6c-0.2-2.2,1.1-4.2,3.2-4.9
				c2.1-0.7,4.3,0.2,5.4,2.1c0,0,3.3,4.4,28.6,8.1c17.7,2.6,40.6,4.1,64.5,4.1s46.8-1.4,64.5-4.1c25.3-3.7,28.5-8.1,28.6-8.1
				c1.1-1.9,3.3-2.8,5.4-2.1c2.1,0.7,3.4,2.7,3.2,4.9c-2.4,25.2-14,48.5-32.8,65.6C879,376.8,854.5,386.3,828.9,386.3z M737.9,302.7
				c3.9,19.1,13.7,36.6,28.4,50c17.1,15.7,39.4,24.3,62.6,24.3c23.3,0,45.5-8.6,62.6-24.3c14.6-13.4,24.5-30.8,28.4-50
				c-5.8,2.2-13.9,4-24.5,5.7c-18.2,2.7-41.8,4.2-66.5,4.2s-48.2-1.5-66.5-4.2C751.8,306.8,743.7,304.9,737.9,302.7z"/>
		</g>
	</g>
</g>
<g>
	<g>
		<path fill="#FBB03B" d="M259,664.3c-0.1-0.9-0.1-1.8-0.1-2.7c0-3.7,0.4-7.3,1.3-10.7h-37.3c0.8,3.4,1.3,7,1.3,10.7
			c0,0.9,0,1.8-0.1,2.7H259z"/>
	</g>
	<g>
		<g>
			<path fill="#DEFEFF" d="M182.2,615.7c-23.5,2.2-41.9,21.9-41.9,45.9s18.4,43.8,41.9,45.9c23.5-2.2,41.9-21.9,41.9-45.9
				S205.7,617.9,182.2,615.7z"/>
		</g>
	</g>
	<g>
		<g>
			<path fill="#333333" d="M178,712.4c-28,0-50.8-22.8-50.8-50.8s22.8-50.8,50.8-50.8s50.8,22.8,50.8,50.8S206,712.4,178,712.4z
				 M178,620.2c-22.9,0-41.5,18.6-41.5,41.5c0,22.9,18.6,41.5,41.5,41.5s41.5-18.6,41.5-41.5C219.5,638.8,200.9,620.2,178,620.2z"/>
		</g>
	</g>
	<g>
		<g>
			<path fill="#DEFEFF" d="M309.3,615.7c-23.5,2.2-41.9,21.9-41.9,45.9s18.4,43.8,41.9,45.9c23.5-2.2,41.9-21.9,41.9-45.9
				S332.7,617.9,309.3,615.7z"/>
		</g>
	</g>
	<g>
		<g>
			<path fill="#333333" d="M305,712.4c-28,0-50.8-22.8-50.8-50.8s22.8-50.8,50.8-50.8c28,0,50.8,22.8,50.8,50.8S333,712.4,305,712.4
				z M305,620.2c-22.9,0-41.5,18.6-41.5,41.5c0,22.9,18.6,41.5,41.5,41.5c22.9,0,41.5-18.6,41.5-41.5
				C346.5,638.8,327.9,620.2,305,620.2z"/>
		</g>
	</g>
	<g>
		<g>
			<path fill="#333333" d="M143.3,635.8c-0.8,0-1.5-0.2-2.2-0.6c-2.2-1.2-3.1-4.1-1.8-6.3c10-18.1,22.9-34.9,29.7-43.2
				c4.5-5.6,11.9-8.1,18.7-6.4c10.9,2.6,16.3,6.4,16.9,6.8c2.1,1.5,2.5,4.4,1,6.5c-1.5,2.1-4.4,2.5-6.5,1c-0.2-0.1-4.6-3.1-13.6-5.3
				c-3.4-0.8-7.1,0.5-9.4,3.3c-6.6,8.1-19.2,24.4-28.8,41.9C146.6,635,145,635.8,143.3,635.8z"/>
		</g>
	</g>
	<g>
		<g>
			<path fill="#333333" d="M339.6,635.8c-1.6,0-3.2-0.9-4.1-2.4c-9.6-17.5-22.2-33.7-28.8-41.9c-2.3-2.8-6-4.1-9.4-3.3
				c-9.2,2.2-13.6,5.3-13.6,5.3c-2.1,1.5-5,1-6.5-1.1c-1.5-2.1-1-4.9,1-6.4c0.6-0.4,6-4.2,16.9-6.8c6.9-1.6,14.2,0.9,18.7,6.4
				c6.8,8.4,19.8,25.1,29.7,43.2c1.2,2.2,0.4,5.1-1.8,6.3C341.2,635.7,340.4,635.8,339.6,635.8z"/>
		</g>
	</g>
	<g>
		<path fill="#333333" d="M259,669h-35c-1.3,0-2.5-0.5-3.4-1.5c-0.9-0.9-1.3-2.2-1.3-3.5c0.1-0.9,0.1-1.7,0.1-2.4
			c0-3.2-0.4-6.5-1.1-9.6c-0.3-1.4,0-2.8,0.9-4c0.9-1.1,2.2-1.8,3.6-1.8h37.3c1.4,0,2.8,0.7,3.6,1.8c0.9,1.1,1.2,2.6,0.9,4
			c-0.8,3.2-1.1,6.4-1.1,9.6c0,0.7,0,1.5,0.1,2.4c0.1,1.3-0.4,2.5-1.3,3.5C261.5,668.5,260.2,669,259,669z M228.7,659.7h25.6
			c0.1-1.4,0.2-2.8,0.3-4.1h-26.2C228.5,656.9,228.7,658.3,228.7,659.7z"/>
	</g>
</g>
<g>
	<g>
		<path fill="#FBB03B" d="M615.4,730.1l-57.4-67.6c-2.2,2.7-4.7,5.2-7.4,7.5s-5.6,4.3-8.6,6.1l57.4,67.6c3.7,4.4,10.4,5,14.8,1.2
			l0,0C618.6,741.2,619.2,734.5,615.4,730.1z"/>
	</g>
	<g>
		<g>
			<path fill="#DEFEFF" d="M545.4,593.9c-8.1-9.6-19.3-14.9-30.9-15.8c-9.2,0.7-18.2,4.2-25.8,10.6c-19.1,16.2-21.4,44.7-5.2,63.8
				c8.1,9.6,19.3,14.9,30.9,15.8c9.2-0.7,18.2-4.2,25.8-10.6C559.3,641.5,561.6,613,545.4,593.9z"/>
		</g>
	</g>
	<g>
		<g>
			<path fill="#333333" d="M511,689.3c-19.5,0-37.8-8.5-50.4-23.3c-23.6-27.8-20.2-69.5,7.6-93.1c11.9-10.1,27.1-15.7,42.7-15.7
				c19.5,0,37.8,8.5,50.4,23.3c23.6,27.8,20.2,69.5-7.6,93.1C541.7,683.7,526.6,689.3,511,689.3z M510.9,566.4
				c-13.4,0-26.5,4.8-36.7,13.5c-23.9,20.3-26.8,56.2-6.5,80c10.8,12.7,26.6,20,43.3,20c13.4,0,26.5-4.8,36.7-13.5
				c23.9-20.3,26.8-56.2,6.5-80C543.4,573.7,527.6,566.4,510.9,566.4z"/>
		</g>
	</g>
	<g>
		<g>
			<path fill="#333333" d="M510.9,673.1c-14.7,0-28.6-6.4-38.1-17.6c-17.8-21-15.2-52.5,5.8-70.3c9-7.6,20.5-11.9,32.3-11.9
				c14.7,0,28.6,6.4,38.1,17.6c8.6,10.2,12.8,23.1,11.7,36.4c-1.1,13.3-7.3,25.3-17.4,34C534.2,668.9,522.7,673.1,510.9,673.1z
				 M510.9,582.6c-9.6,0-18.9,3.4-26.3,9.6c-17.1,14.5-19.2,40.2-4.7,57.2c7.7,9.1,19,14.3,31,14.3c9.6,0,18.9-3.4,26.3-9.6
				c8.3-7,13.3-16.8,14.2-27.6s-2.5-21.3-9.5-29.6C534.2,587.8,522.9,582.6,510.9,582.6z"/>
		</g>
	</g>
	<g>
		<path fill="#333333" d="M607.4,752C607.4,752,607.4,752,607.4,752c-4.5,0-8.7-1.9-11.5-5.3L535,674.9l4.7-2.8
			c2.8-1.7,5.5-3.6,7.9-5.6c2.4-2.1,4.7-4.4,6.8-6.9l3.5-4.2l60.9,71.8c5.4,6.4,4.6,15.9-1.7,21.3C614.5,750.8,611,752,607.4,752z
			 M549,677.1l53.9,63.5c1.1,1.3,2.7,2.1,4.5,2.1c0,0,0,0,0,0c1,0,2.4-0.2,3.8-1.4c2.5-2.1,2.8-5.8,0.7-8.2L558,669.6
			c-1.4,1.4-2.8,2.7-4.3,4C552.2,674.8,550.7,676,549,677.1z"/>
	</g>
</g>
<g>
	<path fill="#DEFEFF" d="M870.7,646.2c0.4-2.4,0.6-4.8,0.6-7.3c0-24.3-18.6-44.2-42.4-46.3c-23.7,2.1-42.4,22-42.4,46.3
		s18.6,44.2,42.4,46.3c8.7-0.8,16.7-3.9,23.4-8.9C853.5,663.7,860.5,652.7,870.7,646.2z"/>
	<g>
		<g>
			<circle fill="#333333" cx="824.8" cy="638.9" r="32.7"/>
		</g>
	</g>
	<g>
		<g>
			<circle fill="#DEFEFF" cx="839.3" cy="620.7" r="18.2"/>
		</g>
	</g>
	<path fill="#333333" d="M852.1,680.1c0-3.8,0.5-7.5,1.5-11c-7.5,7.2-17.7,11.6-28.9,11.6c-23.1,0-41.9-18.8-41.9-41.9
		c0-23.1,18.8-41.9,41.9-41.9c23.1,0,41.9,18.8,41.9,41.9c0,4.1-0.6,8-1.7,11.8c3.2-2.9,6.8-5.4,10.8-7.2c0.1-1.5,0.2-3,0.2-4.6
		c0-28.2-23-51.2-51.2-51.2s-51.2,23-51.2,51.2s23,51.2,51.2,51.2c10.1,0,19.5-2.9,27.4-8C852.1,681.4,852.1,680.8,852.1,680.1z"/>
	<path fill="#333333" d="M854,692.4c-9.5,2.9-19.3,4.3-29.3,4.3c-10.1,0-20.2-1.5-29.8-4.5c-36.2-11.2-59.8-33.3-70.7-45.5
		c-4-4.5-4-11.2,0-15.7c10.9-12.2,34.6-34.3,70.7-45.5c9.6-3,19.7-4.5,29.8-4.5s20.2,1.5,29.8,4.5c36.2,11.2,59.8,33.3,70.7,45.5
		c4,4.5,4,11.2,0,15.7c-1.3,1.5-2.8,3.1-4.5,4.8c2.2,2.2,4.2,4.7,5.8,7.3c2.1-2.1,4-4.1,5.6-5.9c7.1-8,7.1-20.1,0-28.1
		c-11.5-12.9-36.6-36.4-74.9-48.2c-10.5-3.3-21.5-4.9-32.6-4.9c-11.1,0-22,1.7-32.6,4.9c-38.3,11.9-63.4,35.3-74.9,48.2
		c-7.1,8-7.1,20.1,0,28.1c11.5,12.9,36.6,36.4,74.9,48.2c10.5,3.3,21.5,4.9,32.6,4.9c11.1,0,22-1.7,32.6-4.9
		c0.2-0.1,0.4-0.1,0.6-0.2C856.3,698.3,855,695.5,854,692.4z"/>
	<g>
		<circle fill="#333333" cx="892.4" cy="680.1" r="32.8"/>
	</g>
	<g>
		<rect x="876.5" y="675.9" fill="#FFFFFF" width="31.8" height="8.4"/>
	</g>
	<g>
		<rect x="888.2" y="664.2" fill="#FFFFFF" width="8.4" height="31.8"/>
	</g>
</g>
<g>
	<path fill="#DEFEFF" d="M1194.3,646.2c0.4-2.4,0.6-4.8,0.6-7.3c0-24.3-18.6-44.2-42.4-46.3c-23.7,2.1-42.4,22-42.4,46.3
		s18.6,44.2,42.4,46.3c8.7-0.8,16.7-3.9,23.4-8.9C1177.1,663.7,1184.1,652.7,1194.3,646.2z"/>
	<g>
		<g>
			<circle fill="#333333" cx="1148.3" cy="638.9" r="32.7"/>
		</g>
	</g>
	<g>
		<g>
			<circle fill="#DEFEFF" cx="1162.8" cy="620.7" r="18.2"/>
		</g>
	</g>
	<path fill="#333333" d="M1175.7,680.1c0-3.8,0.5-7.5,1.5-11c-7.5,7.2-17.7,11.6-28.9,11.6c-23.1,0-41.9-18.8-41.9-41.9
		c0-23.1,18.8-41.9,41.9-41.9s41.9,18.8,41.9,41.9c0,4.1-0.6,8-1.7,11.8c3.2-2.9,6.8-5.4,10.8-7.2c0.1-1.5,0.2-3,0.2-4.6
		c0-28.2-23-51.2-51.2-51.2s-51.2,23-51.2,51.2s23,51.2,51.2,51.2c10.1,0,19.5-2.9,27.4-8C1175.7,681.4,1175.7,680.8,1175.7,680.1z"
		/>
	<path fill="#333333" d="M1177.6,692.4c-9.5,2.9-19.3,4.3-29.3,4.3c-10.1,0-20.2-1.5-29.8-4.5c-36.2-11.2-59.8-33.3-70.7-45.5
		c-4-4.5-4-11.2,0-15.7c10.9-12.2,34.6-34.3,70.7-45.5c9.6-3,19.7-4.5,29.8-4.5c10.1,0,20.2,1.5,29.8,4.5
		c36.2,11.2,59.8,33.3,70.7,45.5c4,4.5,4,11.2,0,15.7c-1.3,1.5-2.8,3.1-4.5,4.8c2.2,2.2,4.2,4.7,5.8,7.3c2.1-2.1,4-4.1,5.6-5.9
		c7.1-8,7.1-20.1,0-28.1c-11.5-12.9-36.6-36.4-74.9-48.2c-10.5-3.3-21.5-4.9-32.6-4.9s-22,1.7-32.6,4.9
		c-38.3,11.8-63.4,35.3-74.9,48.2c-7.1,8-7.1,20.1,0,28.1c11.5,12.9,36.6,36.4,74.9,48.2c10.5,3.3,21.5,4.9,32.6,4.9
		s22-1.7,32.6-4.9c0.2-0.1,0.4-0.1,0.6-0.2C1179.9,698.3,1178.6,695.5,1177.6,692.4z"/>
	<g>
		<circle fill="#333333" cx="1216" cy="680.1" r="32.8"/>
	</g>
	<g>
		<rect x="1200.1" y="675.9" fill="#FFFFFF" width="31.8" height="8.4"/>
	</g>
</g>
</svg>
